<svg width="155" height="132" viewBox="0 0 155 132" fill="none" xmlns="http://www.w3.org/2000/svg">
<g clip-path="url(#clip0_2854_77668)">
<path d="M86.4888 46.5036C90.6944 50.1829 92.76 54.2295 92.76 58.2401H99.56C99.56 51.7046 96.1632 45.9318 90.9664 41.3857L86.4888 46.5036ZM92.76 58.2401C92.76 61.3247 91.5488 64.3992 89.0952 67.331L94.3104 71.6947C97.5728 67.7961 99.56 63.2257 99.56 58.2401H92.76ZM89.0952 67.331C88.2152 68.3833 87.6408 69.7631 87.6408 71.2809H94.4408C94.4408 71.5013 94.3584 71.6374 94.3104 71.6947L89.0952 67.331ZM87.6408 71.2809V125.39H94.4408V71.2809H87.6408ZM87.6408 125.39C87.6408 124.954 87.9944 124.6 88.4304 124.6V131.4C91.7496 131.4 94.4408 128.709 94.4408 125.39H87.6408ZM88.4304 124.6H11.7305V131.4H88.4304V124.6ZM11.7305 124.6C12.1667 124.6 12.5203 124.954 12.5203 125.39H5.72032C5.72032 128.709 8.41121 131.4 11.7305 131.4V124.6ZM12.5203 125.39V71.2816H5.72032V125.39H12.5203ZM12.5203 71.2816C12.5203 69.7637 11.9456 68.3839 11.0651 67.3316L5.85006 71.6954C5.80218 71.6382 5.72032 71.502 5.72032 71.2816H12.5203ZM11.0651 67.3316C8.61169 64.3996 7.40001 61.3249 7.40001 58.2401H0.600006C0.600006 63.226 2.58762 67.7965 5.85006 71.6954L11.0651 67.3316ZM7.40001 58.2401C7.40001 52.7467 11.3421 47.1028 19.179 42.6401C26.9175 38.2334 37.8355 35.4 50.0801 35.4V28.6C36.8753 28.6 24.7533 31.6406 15.8141 36.7309C6.97332 41.7653 0.600006 49.2413 0.600006 58.2401H7.40001ZM50.0801 35.4C52.1642 35.4 54.2128 35.4821 56.2163 35.6408L56.7531 28.862C54.5703 28.6892 52.3427 28.6 50.0801 28.6V35.4ZM53.8616 32.0337C53.3549 33.4256 53.0801 34.9249 53.0801 36.4809H59.8801C59.8801 35.7297 60.0122 35.017 60.2514 34.3598L53.8616 32.0337ZM53.0801 36.4809C53.0801 43.6606 58.9004 49.4809 66.0801 49.4809V42.6809C62.6559 42.6809 59.8801 39.905 59.8801 36.4809H53.0801ZM66.0801 49.4809C67.9278 49.4809 69.6939 49.0933 71.2945 48.392L68.565 42.1637C67.8087 42.4953 66.9706 42.6809 66.0801 42.6809V49.4809ZM78.8811 46.5197C76.7053 46.5197 74.7887 45.4017 73.6775 43.6927L67.9767 47.3997C70.2893 50.956 74.3082 53.3197 78.8811 53.3197V46.5197ZM84.5504 42.8351C83.5824 45.0125 81.404 46.5197 78.8811 46.5197V53.3197C84.1872 53.3197 88.744 50.141 90.764 45.5981L84.5504 42.8351ZM56.2163 35.6408C54.1617 35.4781 53.3431 33.4581 53.8616 32.0337L60.2514 34.3598C61.0813 32.0801 59.715 29.0965 56.7531 28.862L56.2163 35.6408ZM71.2945 48.392C70.0935 48.9183 68.692 48.4997 67.9767 47.3997L73.6775 43.6927C72.5779 42.0018 70.4116 41.3545 68.565 42.1637L71.2945 48.392ZM90.9664 41.3857C88.6584 39.3661 85.5344 40.6233 84.5504 42.8351L90.764 45.5981C90.1536 46.9714 88.1072 47.9189 86.4888 46.5036L90.9664 41.3857Z" fill="#CBC8C5"/>
<path d="M82 93.2C106.742 93.2 126.8 73.1423 126.8 48.4C126.8 23.6576 106.742 3.59998 82 3.59998C57.2577 3.59998 37.2 23.6576 37.2 48.4C37.2 73.1423 57.2577 93.2 82 93.2Z" fill="white" stroke="#CBC8C5" stroke-width="9"/>
<path fill-rule="evenodd" clip-rule="evenodd" d="M46.2878 20.5627C51.4795 19.5807 57.007 19.0547 62.7255 19.0547C65.2082 19.0547 67.652 19.1537 70.0454 19.3456C72.8496 19.5704 74.1742 22.4064 73.3559 24.5988C73.0624 25.385 72.9005 26.239 72.9005 27.1381C72.9005 31.1491 76.152 34.4006 80.1632 34.4006C81.2184 34.4006 82.2136 34.1774 83.1104 33.7786C84.8752 32.9936 86.9536 33.6148 87.9976 35.2403C89.2944 37.2586 91.5504 38.5843 94.1136 38.5843C97.0912 38.5843 99.6576 36.7919 100.778 34.2142C101.711 32.0697 104.696 30.9001 106.882 32.8023C112.512 37.7026 116.146 43.8879 116.146 50.852C116.146 56.1328 114.046 60.9921 110.566 65.1628V82.2208C108.529 83.4336 106.39 84.4944 104.166 85.3872V64.9739C104.166 63.5093 104.719 62.1696 105.582 61.1453C108.35 57.8602 109.746 54.3766 109.746 50.852C109.746 47.0512 108.111 43.2636 104.869 39.748C102.37 42.9335 98.4832 44.9843 94.1136 44.9843C90.0048 44.9843 86.3216 43.1685 83.82 40.3048C82.6536 40.6282 81.4264 40.8006 80.1632 40.8006C72.6174 40.8006 66.5005 34.6837 66.5005 27.1381C66.5005 26.5987 66.5319 26.0657 66.5931 25.5413C65.3178 25.4839 64.0279 25.4547 62.7255 25.4547C55.7114 25.4547 49.0874 26.3029 43.145 27.8061C43.9886 25.2879 45.0431 22.8664 46.2878 20.5627Z" fill="#CBC8C5"/>
<path d="M135.771 104.354L113.518 82.4L108.255 87.7347L130.508 109.689L135.771 104.354Z" fill="#CBC8C5"/>
<path d="M151.384 114.729L128.938 92.5852C127.365 91.0337 124.833 91.0509 123.281 92.6235L118.579 97.3902C117.027 98.9629 117.044 101.495 118.617 103.047L141.063 125.19C142.635 126.742 145.168 126.725 146.719 125.152L151.422 120.385C152.973 118.813 152.956 116.28 151.384 114.729Z" fill="#CBC8C5"/>
<path d="M56.4 102.4C56.4 106.518 53.5533 109.2 50.8 109.2C48.0467 109.2 45.2 106.518 45.2 102.4C45.2 98.2816 48.0467 95.6 50.8 95.6C53.5533 95.6 56.4 98.2816 56.4 102.4Z" stroke="#CBC8C5" stroke-width="7"/>
<path d="M28 70.4L43.2 85.6" stroke="#CBC8C5" stroke-width="8.5" stroke-linecap="round"/>
<path d="M43.2 70.4L28 85.6" stroke="#CBC8C5" stroke-width="8.5" stroke-linecap="round"/>
<path d="M57.6 60.8L79.2 82.4" stroke="#CBC8C5" stroke-width="8.5" stroke-linecap="round"/>
<path d="M79.2 60.8L57.6 82.4" stroke="#CBC8C5" stroke-width="8.5" stroke-linecap="round"/>
</g>
<defs>
<clipPath id="clip0_2854_77668">
<rect width="154.4" height="132" fill="white"/>
</clipPath>
</defs>
</svg>
