<svg width="154" height="134" viewBox="0 0 154 134" fill="none" xmlns="http://www.w3.org/2000/svg">
<g clip-path="url(#clip0_2854_77654)">
<path d="M86.4888 48.5036C90.6944 52.1829 92.76 56.2295 92.76 60.2401H99.56C99.56 53.7046 96.1632 47.9318 90.9664 43.3857L86.4888 48.5036ZM92.76 60.2401C92.76 63.3247 91.5488 66.3992 89.0952 69.331L94.3104 73.6947C97.5728 69.7961 99.56 65.2257 99.56 60.2401H92.76ZM89.0952 69.331C88.2152 70.3833 87.6408 71.7631 87.6408 73.2809H94.4408C94.4408 73.5013 94.3584 73.6374 94.3104 73.6947L89.0952 69.331ZM87.6408 73.2809V127.39H94.4408V73.2809H87.6408ZM87.6408 127.39C87.6408 126.954 87.9944 126.6 88.4304 126.6V133.4C91.7496 133.4 94.4408 130.709 94.4408 127.39H87.6408ZM88.4304 126.6H11.7305V133.4H88.4304V126.6ZM11.7305 126.6C12.1667 126.6 12.5203 126.954 12.5203 127.39H5.72029C5.72029 130.709 8.41118 133.4 11.7305 133.4V126.6ZM12.5203 127.39V73.2816H5.72029V127.39H12.5203ZM12.5203 73.2816C12.5203 71.7637 11.9456 70.3839 11.0651 69.3316L5.85003 73.6954C5.80215 73.6382 5.72029 73.502 5.72029 73.2816H12.5203ZM11.0651 69.3316C8.61166 66.3996 7.39998 63.3249 7.39998 60.2401H0.599976C0.599976 65.226 2.58759 69.7965 5.85003 73.6954L11.0651 69.3316ZM7.39998 60.2401C7.39998 54.7467 11.3421 49.1028 19.1789 44.6401C26.9175 40.2334 37.8355 37.4 50.0801 37.4V30.6C36.8753 30.6 24.7533 33.6406 15.8141 38.7309C6.97329 43.7653 0.599976 51.2413 0.599976 60.2401H7.39998ZM50.0801 37.4C52.1641 37.4 54.2128 37.4821 56.2163 37.6408L56.7531 30.862C54.5703 30.6892 52.3426 30.6 50.0801 30.6V37.4ZM53.8616 34.0337C53.3549 35.4256 53.0801 36.9249 53.0801 38.4809H59.8801C59.8801 37.7297 60.0121 37.017 60.2513 36.3598L53.8616 34.0337ZM53.0801 38.4809C53.0801 45.6606 58.9004 51.4809 66.0801 51.4809V44.6809C62.6559 44.6809 59.8801 41.905 59.8801 38.4809H53.0801ZM66.0801 51.4809C67.9277 51.4809 69.6939 51.0933 71.2945 50.392L68.565 44.1637C67.8086 44.4953 66.9705 44.6809 66.0801 44.6809V51.4809ZM78.881 48.5197C76.7053 48.5197 74.7887 47.4017 73.6774 45.6927L67.9767 49.3997C70.2893 52.956 74.3081 55.3197 78.881 55.3197V48.5197ZM84.5504 44.8351C83.5824 47.0125 81.404 48.5197 78.881 48.5197V55.3197C84.1872 55.3197 88.744 52.141 90.764 47.5981L84.5504 44.8351ZM56.2163 37.6408C54.1617 37.4781 53.343 35.4581 53.8616 34.0337L60.2513 36.3598C61.0813 34.0801 59.715 31.0965 56.7531 30.862L56.2163 37.6408ZM71.2945 50.392C70.0934 50.9183 68.692 50.4997 67.9767 49.3997L73.6774 45.6927C72.5779 44.0018 70.4116 43.3545 68.565 44.1637L71.2945 50.392ZM90.9664 43.3857C88.6584 41.3661 85.5344 42.6233 84.5504 44.8351L90.764 47.5981C90.1536 48.9714 88.1072 49.9189 86.4888 48.5036L90.9664 43.3857Z" fill="#CBC8C5"/>
<path d="M82 95.2C106.742 95.2 126.8 75.1423 126.8 50.4C126.8 25.6576 106.742 5.59998 82 5.59998C57.2576 5.59998 37.2 25.6576 37.2 50.4C37.2 75.1423 57.2576 95.2 82 95.2Z" fill="white" stroke="#CBC8C5" stroke-width="9"/>
<path fill-rule="evenodd" clip-rule="evenodd" d="M46.2877 22.5627C51.4794 21.5807 57.0069 21.0547 62.7254 21.0547C65.2081 21.0547 67.6519 21.1537 70.0453 21.3456C72.8495 21.5704 74.1741 24.4064 73.3557 26.5988C73.0623 27.385 72.9004 28.239 72.9004 29.1381C72.9004 33.1491 76.1519 36.4006 80.1632 36.4006C81.2184 36.4006 82.2136 36.1774 83.1096 35.7786C84.8752 34.9936 86.9536 35.6148 87.9976 37.2403C89.2944 39.2586 91.5504 40.5843 94.1136 40.5843C97.0912 40.5843 99.6576 38.7919 100.778 36.2142C101.711 34.0697 104.696 32.9001 106.882 34.8023C112.512 39.7026 116.146 45.8879 116.146 52.852C116.146 58.1328 114.046 62.9921 110.566 67.1628V84.2208C108.528 85.4336 106.39 86.4944 104.166 87.3872V66.9739C104.166 65.5093 104.719 64.1696 105.582 63.1453C108.35 59.8602 109.746 56.3766 109.746 52.852C109.746 49.0512 108.111 45.2636 104.869 41.748C102.37 44.9335 98.4832 46.9843 94.1136 46.9843C90.0048 46.9843 86.3208 45.1685 83.82 42.3048C82.6536 42.6282 81.4264 42.8006 80.1632 42.8006C72.6173 42.8006 66.5004 36.6837 66.5004 29.1381C66.5004 28.5987 66.5318 28.0657 66.593 27.5413C65.3177 27.4839 64.0278 27.4547 62.7254 27.4547C55.7113 27.4547 49.0873 28.3029 43.1448 29.8061C43.9884 27.2879 45.043 24.8664 46.2877 22.5627Z" fill="#CBC8C5"/>
<path d="M135.771 106.354L113.518 84.4L108.255 89.7347L130.508 111.689L135.771 106.354Z" fill="#CBC8C5"/>
<path d="M151.614 116.553L129.168 94.4092C127.596 92.8577 125.063 92.8749 123.512 94.4475L118.809 99.2142C117.258 100.787 117.275 103.319 118.847 104.871L141.293 127.014C142.866 128.566 145.398 128.549 146.95 126.976L151.652 122.209C153.204 120.637 153.187 118.104 151.614 116.553Z" fill="#CBC8C5"/>
<path d="M46.3395 80.3999C46.3395 83.5759 45.5224 86.4111 44.2471 88.4247C42.9648 90.4495 41.3004 91.5391 39.6 91.5391C37.8996 91.5391 36.2352 90.4495 34.953 88.4247C33.6776 86.4111 32.8606 83.5759 32.8606 80.3999C32.8606 77.2239 33.6776 74.3889 34.953 72.3751C36.2352 70.3506 37.8996 69.2605 39.6 69.2605C41.3004 69.2605 42.9648 70.3506 44.2471 72.3751C45.5224 74.3889 46.3395 77.2239 46.3395 80.3999Z" fill="#CBC8C5" stroke="#CBC8C5" stroke-width="2.15137"/>
<path d="M56.4 104.4C56.4 108.518 53.5532 111.2 50.8 111.2C48.0467 111.2 45.2 108.518 45.2 104.4C45.2 100.282 48.0467 97.6 50.8 97.6C53.5532 97.6 56.4 100.282 56.4 104.4Z" stroke="#CBC8C5" stroke-width="7"/>
<path d="M39.6 84.4C41.5882 84.4 43.2 82.0719 43.2 79.2C43.2 76.3281 41.5882 74 39.6 74C37.6118 74 36 76.3281 36 79.2C36 82.0719 37.6118 84.4 39.6 84.4Z" fill="#BAB7B4"/>
<path d="M36.4 77.669C37.3217 77.669 38.069 76.9217 38.069 76C38.069 75.0782 37.3217 74.3309 36.4 74.3309C35.4782 74.3309 34.731 75.0782 34.731 76C34.731 76.9217 35.4782 77.669 36.4 77.669Z" fill="white" stroke="#BAB7B4" stroke-width="0.827451"/>
<path d="M74.3995 79.4119C74.3995 83.6024 73.3169 87.352 71.6157 90.0248C69.9076 92.7096 67.6619 94.1976 65.328 94.1976C62.9942 94.1976 60.7486 92.7096 59.0404 90.0248C57.3392 87.352 56.2566 83.6024 56.2566 79.4119C56.2566 75.2219 57.3392 71.4721 59.0404 68.7988C60.7486 66.1145 62.9942 64.6262 65.328 64.6262C67.6619 64.6262 69.9076 66.1145 71.6157 68.7988C73.3169 71.4721 74.3995 75.2219 74.3995 79.4119Z" fill="#CBC8C5" stroke="#CBC8C5" stroke-width="2.32143"/>
<path d="M65.3277 85.1252C67.6946 85.1252 69.6134 81.9272 69.6134 77.9823C69.6134 74.0374 67.6946 70.8395 65.3277 70.8395C62.9608 70.8395 61.042 74.0374 61.042 77.9823C61.042 81.9272 62.9608 85.1252 65.3277 85.1252Z" fill="#BAB7B4"/>
<path d="M61.0417 76.1965C62.4225 76.1965 63.5417 75.0772 63.5417 73.6965C63.5417 72.3158 62.4225 71.1965 61.0417 71.1965C59.661 71.1965 58.5417 72.3158 58.5417 73.6965C58.5417 75.0772 59.661 76.1965 61.0417 76.1965Z" fill="white" stroke="#BAB7B4" stroke-width="0.892857"/>
</g>
<defs>
<clipPath id="clip0_2854_77654">
<rect width="154" height="134" fill="white"/>
</clipPath>
</defs>
</svg>
