<svg width="237" height="148" viewBox="0 0 237 148" fill="none" xmlns="http://www.w3.org/2000/svg">
<path d="M4.2581 140.579H99.1634" stroke="#CBC8C5" stroke-width="8" stroke-linecap="round"/>
<path d="M140.132 140.579H232.09" stroke="#CBC8C5" stroke-width="8" stroke-linecap="round"/>
<g filter="url(#filter0_d_2678_57100)">
<path d="M115.173 142.191L116.719 122.04C116.72 122.023 116.734 122.01 116.751 122.01H124.429C124.449 122.01 124.464 122.028 124.461 122.047L122.749 133.317C122.599 134.302 122.954 135.296 123.693 135.964C124.194 136.416 124.834 136.685 125.508 136.724L136.032 137.344C136.878 137.394 137.688 137.706 138.349 138.237L139.032 138.785C140.804 140.208 140.93 142.861 139.301 144.446C138.936 144.801 138.447 145 137.937 145H125.522C124.836 145 124.166 144.786 123.607 144.389L122.094 143.316C121.336 142.778 120.273 143.142 120.004 144.032C119.831 144.607 119.302 145 118.702 145H117.774C116.255 145 115.056 143.706 115.173 142.191Z" fill="#CBC8C5"/>
<path d="M115.173 142.191L116.719 122.04C116.72 122.023 116.734 122.01 116.751 122.01H124.429C124.449 122.01 124.464 122.028 124.461 122.047L122.749 133.317C122.599 134.302 122.954 135.296 123.693 135.964C124.194 136.416 124.834 136.685 125.508 136.724L136.032 137.344C136.878 137.394 137.688 137.706 138.349 138.237L139.032 138.785C140.804 140.208 140.93 142.861 139.301 144.446C138.936 144.801 138.447 145 137.937 145H125.522C124.836 145 124.166 144.786 123.607 144.389L122.094 143.316C121.336 142.778 120.273 143.142 120.004 144.032C119.831 144.607 119.302 145 118.702 145H117.774C116.255 145 115.056 143.706 115.173 142.191Z" stroke="#CBC8C5" stroke-width="3.67839" stroke-linecap="round"/>
</g>
<g filter="url(#filter1_d_2678_57100)">
<path d="M110.921 142.455L109.276 122.04C109.274 122.023 109.26 122.01 109.244 122.01H103.138C102.766 122.01 102.48 122.339 102.531 122.708L104.025 133.467C104.15 134.365 103.843 135.27 103.198 135.908C102.705 136.395 102.053 136.687 101.362 136.732L92.0676 137.331C91.1643 137.389 90.3057 137.745 89.6256 138.342L89.0706 138.83C87.4315 140.269 87.3112 142.781 88.8051 144.371C89.1823 144.772 89.7087 145 90.2595 145H101.438C102.083 145 102.711 144.785 103.221 144.389L104.505 143.392C105.223 142.834 106.279 143.184 106.521 144.062C106.674 144.616 107.178 145 107.753 145H108.573C109.948 145 111.031 143.826 110.921 142.455Z" fill="#CBC8C5"/>
<path d="M110.921 142.455L109.276 122.04C109.274 122.023 109.26 122.01 109.244 122.01H103.138C102.766 122.01 102.48 122.339 102.531 122.708L104.025 133.467C104.15 134.365 103.843 135.27 103.198 135.908C102.705 136.395 102.053 136.687 101.362 136.732L92.0676 137.331C91.1643 137.389 90.3057 137.745 89.6256 138.342L89.0706 138.83C87.4315 140.269 87.3112 142.781 88.8051 144.371C89.1823 144.772 89.7087 145 90.2595 145H101.438C102.083 145 102.711 144.785 103.221 144.389L104.505 143.392C105.223 142.834 106.279 143.184 106.521 144.062C106.674 144.616 107.178 145 107.753 145H108.573C109.948 145 111.031 143.826 110.921 142.455Z" stroke="#CBC8C5" stroke-width="3.67839" stroke-linecap="round"/>
</g>
<path d="M164.909 48.315L161.492 45.7893V45.7893L164.909 48.315ZM63.8162 48.3138L67.2335 45.7883L67.2335 45.7883L63.8162 48.3138ZM120.431 5.18905L120.165 9.42995L120.431 5.18905ZM122.232 7.91688L118.078 7.0235L122.232 7.91688ZM136.999 21.1697L138.338 25.2024L136.999 21.1697ZM161.502 20.2739L164.44 17.2037L161.502 20.2739ZM158.326 20.9254L154.719 18.6791L158.326 20.9254ZM158.565 23.3441C162.848 27.442 164.93 31.8499 164.93 36.215H173.429C173.429 28.9324 169.91 22.4376 164.44 17.2037L158.565 23.3441ZM164.93 36.215C164.93 39.4513 163.795 42.6735 161.492 45.7893L168.326 50.8407C171.524 46.5143 173.429 41.5597 173.429 36.215H164.93ZM161.492 45.7893C159.997 47.8117 158.839 50.4295 158.839 53.3982H167.338C167.338 52.6756 167.627 51.7868 168.326 50.8407L161.492 45.7893ZM158.839 53.3982V111.775H167.338V53.3982H158.839ZM158.839 111.775C158.839 113.529 157.417 114.952 155.662 114.952V123.45C162.11 123.45 167.338 118.223 167.338 111.775H158.839ZM155.662 114.952H73.0629V123.45H155.662V114.952ZM73.0629 114.952C71.3083 114.952 69.886 113.529 69.886 111.775H61.3875C61.3875 118.223 66.6148 123.45 73.0629 123.45V114.952ZM69.886 111.775V53.3968H61.3875V111.775H69.886ZM69.886 53.3968C69.886 50.4283 68.728 47.8106 67.2335 45.7883L60.3989 50.8393C61.0981 51.7854 61.3875 52.6742 61.3875 53.3968H69.886ZM67.2335 45.7883C64.931 42.6729 63.7958 39.451 63.7958 36.215H55.2973C55.2973 41.5592 57.2018 46.5132 60.3989 50.8393L67.2335 45.7883ZM63.7958 36.215C63.7958 29.7856 68.4121 23.1268 77.7046 17.8352C86.8742 12.6136 99.826 9.24923 114.363 9.24923V0.750769C98.6259 0.750769 84.1694 4.37408 73.4993 10.4501C62.9521 16.4561 55.2973 25.4048 55.2973 36.215H63.7958ZM114.363 9.24923C116.325 9.24923 118.261 9.31059 120.165 9.42995L120.696 0.948146C118.615 0.817661 116.502 0.750769 114.363 0.750769V9.24923ZM118.078 7.0235C117.848 8.09297 117.727 9.19952 117.727 10.3294H126.226C126.226 9.80387 126.282 9.29618 126.386 8.81026L118.078 7.0235ZM117.727 10.3294C117.727 18.9833 124.743 25.9987 133.397 25.9987V17.5003C129.436 17.5003 126.226 14.2897 126.226 10.3294H117.727ZM133.397 25.9987C135.116 25.9987 136.78 25.7201 138.338 25.2024L135.66 17.1371C134.954 17.3716 134.195 17.5003 133.397 17.5003V25.9987ZM148.625 22.0676C146.342 22.0676 144.31 21.0059 142.989 19.3323L136.317 24.5957C139.18 28.2243 143.63 30.5661 148.625 30.5661V22.0676ZM154.719 18.6791C153.446 20.7228 151.191 22.0676 148.625 22.0676V30.5661C154.247 30.5661 159.173 27.6021 161.933 23.1717L154.719 18.6791ZM120.165 9.42995C119.239 9.3719 118.607 8.82586 118.32 8.37024C118.06 7.95665 117.978 7.48788 118.078 7.0235L126.386 8.81026C127.04 5.76932 125.306 1.2372 120.696 0.948146L120.165 9.42995ZM138.338 25.2024C137.595 25.4493 136.806 25.216 136.317 24.5957L142.989 19.3323C141.258 17.1377 138.306 16.2582 135.66 17.1371L138.338 25.2024ZM164.44 17.2037C162.768 15.6043 160.608 15.2999 158.857 15.7069C157.17 16.0992 155.66 17.1681 154.719 18.6791L161.933 23.1717C161.682 23.5748 161.288 23.8668 160.781 23.9847C160.211 24.1173 159.293 24.0412 158.565 23.3441L164.44 17.2037Z" fill="#CBC8C5"/>
<rect x="82.8018" y="58.0337" width="20.0926" height="63.0176" fill="#A5A3A1" fill-opacity="0.21"/>
<rect x="125.727" y="58.0337" width="20.0926" height="63.0176" fill="#A5A3A1" fill-opacity="0.21"/>
<path d="M142.993 104.612H86.5417C85.9894 104.612 85.5401 104.166 85.5593 103.614C85.9009 93.8066 91.3465 75.3862 114.956 75.3862C138.583 75.3862 143.666 93.6013 143.977 103.613C143.994 104.165 143.545 104.612 142.993 104.612Z" stroke="#CBC8C5" stroke-width="7"/>
<path d="M84.6284 57.1205L86.3515 57.6354C91.1811 59.0787 96.3508 58.8978 101.068 57.1205V57.1205" stroke="#CBC8C5" stroke-width="8.5" stroke-linecap="round"/>
<path d="M127.553 57.1205L129.277 57.6354C134.106 59.0787 139.276 58.8978 143.993 57.1205V57.1205" stroke="#CBC8C5" stroke-width="8.5" stroke-linecap="round"/>
<defs>
<filter id="filter0_d_2678_57100" x="112.68" y="119.525" width="30.2509" height="27.9588" filterUnits="userSpaceOnUse" color-interpolation-filters="sRGB">
<feFlood flood-opacity="0" result="BackgroundImageFix"/>
<feColorMatrix in="SourceAlpha" type="matrix" values="0 0 0 0 0 0 0 0 0 0 0 0 0 0 0 0 0 0 127 0" result="hardAlpha"/>
<feOffset/>
<feGaussianBlur stdDeviation="0.322717"/>
<feComposite in2="hardAlpha" operator="out"/>
<feColorMatrix type="matrix" values="0 0 0 0 0 0 0 0 0 0 0 0 0 0 0 0 0 0 0.55 0"/>
<feBlend mode="normal" in2="BackgroundImageFix" result="effect1_dropShadow_2678_57100"/>
<feBlend mode="normal" in="SourceGraphic" in2="effect1_dropShadow_2678_57100" result="shape"/>
</filter>
<filter id="filter1_d_2678_57100" x="85.2739" y="119.525" width="28.1392" height="27.9588" filterUnits="userSpaceOnUse" color-interpolation-filters="sRGB">
<feFlood flood-opacity="0" result="BackgroundImageFix"/>
<feColorMatrix in="SourceAlpha" type="matrix" values="0 0 0 0 0 0 0 0 0 0 0 0 0 0 0 0 0 0 127 0" result="hardAlpha"/>
<feOffset/>
<feGaussianBlur stdDeviation="0.322717"/>
<feComposite in2="hardAlpha" operator="out"/>
<feColorMatrix type="matrix" values="0 0 0 0 0 0 0 0 0 0 0 0 0 0 0 0 0 0 0.55 0"/>
<feBlend mode="normal" in2="BackgroundImageFix" result="effect1_dropShadow_2678_57100"/>
<feBlend mode="normal" in="SourceGraphic" in2="effect1_dropShadow_2678_57100" result="shape"/>
</filter>
</defs>
</svg>
