<svg width="152" height="156" viewBox="0 0 152 156" fill="none" xmlns="http://www.w3.org/2000/svg">
<g clip-path="url(#clip0_2678_54881)">
<path d="M107.256 49.9162C112.691 54.635 115.456 59.9192 115.456 65.2455H122.467C122.467 57.2987 118.313 50.23 111.853 44.6217L107.256 49.9162ZM115.456 65.2455C115.456 69.3498 113.826 73.397 110.609 77.201L115.963 81.7277C120.022 76.928 122.467 71.3293 122.467 65.2455H115.456ZM110.609 77.201C109.658 78.3257 109.053 79.7957 109.053 81.3993H116.064C116.064 81.5815 115.996 81.6884 115.963 81.7277L110.609 77.201ZM109.053 81.3993V149.635H116.064V81.3993H109.053ZM109.053 149.635C109.053 149.278 109.342 148.989 109.699 148.989V156C113.214 156 116.064 153.15 116.064 149.635H109.053ZM109.699 148.989H12.96V156H109.699V148.989ZM12.96 148.989C13.3168 148.989 13.6061 149.278 13.6061 149.635H6.59491C6.59491 153.15 9.44461 156 12.96 156V148.989ZM13.6061 149.635V81.4001H6.59491V149.635H13.6061ZM13.6061 81.4001C13.6061 79.7966 13.0004 78.3264 12.0495 77.2017L6.69562 81.7287C6.66234 81.6894 6.59491 81.5824 6.59491 81.4001H13.6061ZM12.0495 77.2017C8.8328 73.3975 7.20215 69.35 7.20215 65.2455H0.190918C0.190918 71.3297 2.63702 76.9287 6.69562 81.7287L12.0495 77.2017ZM7.20215 65.2455C7.20215 57.9901 12.3995 50.7299 22.3115 45.0856C32.1218 39.4992 45.9093 35.9326 61.329 35.9326V28.9214C44.9192 28.9214 29.8904 32.7015 18.8419 38.993C7.89504 45.2266 0.190918 54.3759 0.190918 65.2455H7.20215ZM61.329 35.9326C64.0038 35.9326 66.6326 36.04 69.2028 36.2473L69.7665 29.2588C67.0082 29.0363 64.1912 28.9214 61.329 28.9214V35.9326ZM66.826 32.5477C66.1798 34.2572 65.8279 36.1072 65.8279 38.0313H72.8392C72.8392 36.967 73.033 35.956 73.3844 35.0264L66.826 32.5477ZM65.8279 38.0313C65.8279 46.5985 72.773 53.5436 81.3403 53.5436V46.5324C76.6452 46.5324 72.8392 42.7262 72.8392 38.0313H65.8279ZM81.3403 53.5436C83.5911 53.5436 85.7388 53.062 87.6783 52.193L84.8114 45.7947C83.756 46.2676 82.5837 46.5324 81.3403 46.5324V53.5436ZM97.3509 51.3336C94.3413 51.3336 91.6946 49.7726 90.1784 47.3998L84.2698 51.1737C87.0192 55.4782 91.8488 58.3448 97.3509 58.3448V51.3336ZM105.166 46.186C103.861 49.22 100.849 51.3336 97.3509 51.3336V58.3448C103.75 58.3448 109.235 54.4713 111.606 48.9553L105.166 46.186ZM69.2028 36.2473C67.1302 36.0801 66.2662 34.0287 66.826 32.5477L73.3844 35.0264C74.2966 32.6128 72.8329 29.5061 69.7665 29.2588L69.2028 36.2473ZM87.6783 52.193C86.445 52.7456 84.9974 52.3129 84.2698 51.1737L90.1784 47.3998C89.0356 45.6099 86.7493 44.9264 84.8114 45.7947L87.6783 52.193ZM111.853 44.6217C109.463 42.5468 106.185 43.8157 105.166 46.186L111.606 48.9553C110.985 50.4021 108.887 51.332 107.256 49.9162L111.853 44.6217Z" fill="#CBC8C5"/>
<path d="M123.981 3.59629L111.779 22.9332C111.443 23.4671 111.602 24.1731 112.136 24.5101L134.829 38.8292C135.526 39.2692 136.446 38.8487 136.569 38.0335L138.288 26.6843C138.336 26.3688 138.513 26.0878 138.778 25.9089L148.281 19.4721C148.964 19.0097 148.947 17.9986 148.251 17.5586L125.558 3.23953C125.024 2.90259 124.318 3.06232 123.981 3.59629Z" stroke="#CBC8C5" stroke-width="6"/>
<path d="M123.785 21.0457L127.446 15.2446" stroke="#CBC8C5" stroke-width="6" stroke-linecap="round"/>
<path d="M86.4895 37.8819C87.4349 34.4457 91.4412 27.78 99.9029 28.6066C108.365 29.4332 106.259 35.7859 103.898 37.4397C102.106 38.6953 98.8933 39.2418 97.3148 35.4294C94.6988 29.1123 103.222 20.1719 112.095 19.5425" stroke="#CBC8C5" stroke-width="6" stroke-linecap="round"/>
<path d="M68.1122 126.202C68.1122 130.714 64.9936 133.652 61.9774 133.652C58.9611 133.652 55.8425 130.714 55.8425 126.202C55.8425 121.691 58.9611 118.753 61.9774 118.753C64.9936 118.753 68.1122 121.691 68.1122 126.202Z" stroke="#CBC8C5" stroke-width="7"/>
<path d="M59.3218 93.7753C59.3218 98.5386 58.0659 102.83 56.0598 105.916C54.051 109.007 51.3301 110.839 48.3932 110.839C45.4563 110.839 42.7354 109.007 40.7266 105.916C38.7205 102.83 37.4646 98.5386 37.4646 93.7753C37.4646 89.0121 38.7205 84.7205 40.7266 81.6343C42.7354 78.5438 45.4563 76.7119 48.3932 76.7119C51.3301 76.7119 54.051 78.5438 56.0598 81.6343C58.0659 84.7205 59.3218 89.0121 59.3218 93.7753Z" fill="#CBC8C5" stroke="#CBC8C5" stroke-width="1.06039"/>
<path d="M86.4902 93.7753C86.4902 98.5386 85.2344 102.83 83.2283 105.916C81.2195 109.007 78.4986 110.839 75.5616 110.839C72.6247 110.839 69.9038 109.007 67.895 105.916C65.8889 102.83 64.6331 98.5386 64.6331 93.7753C64.6331 89.0121 65.8889 84.7205 67.895 81.6343C69.9038 78.5438 72.6247 76.7119 75.5616 76.7119C78.4986 76.7119 81.2195 78.5438 83.2283 81.6343C85.2344 84.7205 86.4902 89.0121 86.4902 93.7753Z" fill="#CBC8C5" stroke="#CBC8C5" stroke-width="1.06039"/>
<path d="M47.955 100.786C50.6171 100.786 52.7752 97.0588 52.7752 92.4606C52.7752 87.8624 50.6171 84.1348 47.955 84.1348C45.2929 84.1348 43.1348 87.8624 43.1348 92.4606C43.1348 97.0588 45.2929 100.786 47.955 100.786Z" fill="#BAB7B4"/>
<path d="M75.9999 100.786C78.662 100.786 80.8201 97.0588 80.8201 92.4606C80.8201 87.8624 78.662 84.1348 75.9999 84.1348C73.3378 84.1348 71.1797 87.8624 71.1797 92.4606C71.1797 97.0588 73.3378 100.786 75.9999 100.786Z" fill="#BAB7B4"/>
<path d="M73.6302 87.6404C73.6302 89.501 72.3152 90.9672 70.7415 90.9672C69.1678 90.9672 67.8528 89.501 67.8528 87.6404C67.8528 85.7799 69.1678 84.3135 70.7415 84.3135C72.3152 84.3135 73.6302 85.7799 73.6302 87.6404Z" fill="white" stroke="#BAB7B4" stroke-width="0.407843"/>
<path d="M44.8874 90.9673C46.7248 90.9673 48.2144 89.4778 48.2144 87.6404C48.2144 85.803 46.7248 84.3135 44.8874 84.3135C43.0501 84.3135 41.5605 85.803 41.5605 87.6404C41.5605 89.4778 43.0501 90.9673 44.8874 90.9673Z" fill="white" stroke="#BAB7B4" stroke-width="0.407843"/>
</g>
<defs>
<clipPath id="clip0_2678_54881">
<rect width="151.618" height="156" fill="white" transform="translate(0.190918)"/>
</clipPath>
</defs>
</svg>
