<svg width="159" height="132" viewBox="0 0 159 132" fill="none" xmlns="http://www.w3.org/2000/svg">
<g clip-path="url(#clip0_2915_81726)">
<path d="M111.967 21.8079C117.613 26.7094 120.484 32.1983 120.484 37.7309H127.767C127.767 29.4762 123.452 22.1339 116.741 16.3084L111.967 21.8079ZM120.484 37.7309C120.484 41.994 118.791 46.198 115.45 50.1493L121.011 54.8514C125.227 49.8658 127.767 44.0502 127.767 37.7309H120.484ZM115.45 50.1493C114.462 51.3176 113.833 52.8445 113.833 54.5102H121.116C121.116 54.6994 121.046 54.8105 121.011 54.8514L115.45 50.1493ZM113.833 54.5102V125.388H121.116V54.5102H113.833ZM113.833 125.388C113.833 125.018 114.133 124.717 114.504 124.717V132C118.155 132 121.116 129.04 121.116 125.388H113.833ZM114.504 124.717H14.019V132H114.504V124.717ZM14.019 124.717C14.3896 124.717 14.6901 125.018 14.6901 125.388H7.40737C7.40737 129.04 10.3674 132 14.019 132V124.717ZM14.6901 125.388V54.5111H7.40737V125.388H14.6901ZM14.6901 54.5111C14.6901 52.8454 14.061 51.3183 13.0732 50.1501L7.51198 54.8524C7.47741 54.8115 7.40737 54.7004 7.40737 54.5111H14.6901ZM13.0732 50.1501C9.73193 46.1985 8.03813 41.9943 8.03813 37.7309H0.755371C0.755371 44.0507 3.29621 49.8665 7.51198 54.8524L13.0732 50.1501ZM8.03813 37.7309C8.03813 30.1944 13.4367 22.6531 23.7326 16.7902C33.9229 10.9874 48.2442 7.28276 64.2611 7.28276V0C47.2158 0 31.605 3.92653 20.1287 10.4617C8.75785 16.9367 0.755371 26.4402 0.755371 37.7309H8.03813ZM64.2611 7.28276C67.0395 7.28276 69.7702 7.39432 72.4398 7.60966L73.0254 0.350481C70.1602 0.119367 67.2342 0 64.2611 0V7.28276ZM69.971 3.76671C69.2998 5.54244 68.9343 7.46406 68.9343 9.46267H76.217C76.217 8.3571 76.4184 7.30707 76.7834 6.3415L69.971 3.76671ZM68.9343 9.46267C68.9343 18.3617 76.1483 25.5758 85.0474 25.5758V18.293C80.1705 18.293 76.217 14.3395 76.217 9.46267H68.9343ZM85.0474 25.5758C87.3853 25.5758 89.6162 25.0755 91.6308 24.1728L88.6529 17.5268C87.5567 18.018 86.339 18.293 85.0474 18.293V25.5758ZM101.678 23.2802C98.5519 23.2802 95.8027 21.6587 94.2278 19.194L88.0904 23.1141C90.9462 27.5853 95.9629 30.5629 101.678 30.5629V23.2802ZM109.796 17.9332C108.44 21.0847 105.311 23.2802 101.678 23.2802V30.5629C108.324 30.5629 114.022 26.5394 116.486 20.8098L109.796 17.9332ZM72.4398 7.60966C70.287 7.43601 69.3895 5.30511 69.971 3.76671L76.7834 6.3415C77.7309 3.83438 76.2106 0.607403 73.0254 0.350481L72.4398 7.60966ZM91.6308 24.1728C90.3498 24.7468 88.8462 24.2974 88.0904 23.1141L94.2278 19.194C93.0407 17.3348 90.6659 16.6248 88.6529 17.5268L91.6308 24.1728ZM116.741 16.3084C114.259 14.1531 110.854 15.4711 109.796 17.9332L116.486 20.8098C115.84 22.3126 113.661 23.2785 111.967 21.8079L116.741 16.3084Z" fill="#CBC8C5"/>
<path d="M33.5278 70.0964H97.252" stroke="#CBC8C5" stroke-width="8" stroke-linecap="round"/>
<path d="M33.5278 55.531H59.9278" stroke="#CBC8C5" stroke-width="8" stroke-linecap="round"/>
<path d="M74.4932 39.6055L89.969 55.0813" stroke="#CBC8C5" stroke-width="8" stroke-linecap="round"/>
<path d="M74.4932 55.0813L89.969 39.6055" stroke="#CBC8C5" stroke-width="8" stroke-linecap="round"/>
<path d="M33.5278 85.5725H97.252" stroke="#CBC8C5" stroke-width="8" stroke-linecap="round"/>
<path d="M33.5278 101.958H86.783" stroke="#CBC8C5" stroke-width="8" stroke-linecap="round"/>
<path fill-rule="evenodd" clip-rule="evenodd" d="M113.886 114.085L97.228 116.065L99.2872 99.4871L139.602 59.1726L154.2 73.7705L113.886 114.085Z" fill="white" stroke="#CBC8C5" stroke-width="8" stroke-linejoin="round"/>
<path d="M142.986 83.2721L130.143 70.4287" stroke="#CBC8C5" stroke-width="8"/>
</g>
<defs>
<clipPath id="clip0_2915_81726">
<rect width="157.49" height="132" fill="white" transform="translate(0.755371)"/>
</clipPath>
</defs>
</svg>
